<svg width="25" height="25" viewBox="0 0 25 25" fill="none" xmlns="http://www.w3.org/2000/svg">
<g clip-path="url(#clip0_1_2)">
<path d="M1.82 20V6H8.02C8.88667 6 9.67333 6.2 10.38 6.6C11.0867 6.98667 11.64 7.51333 12.04 8.18C12.4533 8.84667 12.66 9.60667 12.66 10.46C12.66 11.3 12.4533 12.0667 12.04 12.76C11.64 13.44 11.0867 13.98 10.38 14.38C9.67333 14.78 8.88667 14.98 8.02 14.98H4.72V20H1.82ZM9.76 20L6.2 13.68L9.28 13.18L13.24 20.02L9.76 20ZM4.72 12.54H7.88C8.24 12.54 8.55333 12.46 8.82 12.3C9.1 12.1267 9.31333 11.8933 9.46 11.6C9.60667 11.2933 9.68 10.9533 9.68 10.58C9.68 10.18 9.59333 9.83333 9.42 9.54C9.24667 9.24667 8.99333 9.02 8.66 8.86C8.32667 8.68667 7.94 8.6 7.5 8.6H4.72V12.54Z" fill="#3B82F6"/>
<path d="M16.9533 20V8.7H12.8733V6H24.1533V8.7H19.9533V20H16.9533Z" fill="white"/>
</g>
<defs>
<clipPath id="clip0_1_2">
<rect width="25" height="25" fill="white"/>
</clipPath>
</defs>
</svg>
